<svg aria-hidden="true" style="position: absolute; width: 0; height: 0; overflow: hidden;" version="1.1" xmlns="http://www.w3.org/2000/svg" xmlns:xlink="http://www.w3.org/1999/xlink">
<defs>
    <!-- Logo -->
<symbol id="icon-logo" viewBox="0 0 64 32">
<path fill="#fff" style="fill: var(--color1, #fff)" d="M19.962 24.133c-0.601-1.67-1.837-2.505-3.708-2.505h-0.591v10.299h0.591c1.447 0 2.514-0.57 3.203-1.711 0.58-0.973 0.871-2.212 0.871-3.716-0.001-0.894-0.123-1.684-0.365-2.368z"></path>
<path fill="#fff" style="fill: var(--color1, #fff)" d="M9.828 24.256c0.601 1.67 1.837 2.505 3.708 2.505h0.591v-10.299h-0.591c-1.447 0-2.514 0.57-3.203 1.71-0.579 0.973-0.868 2.211-0.868 3.716 0 0.893 0.121 1.683 0.364 2.369z"></path>
<path fill="#fff" style="fill: var(--color1, #fff)" d="M0 0.013h7.858v2.728h-5.037v1.364h4.185v2.588h-4.185v1.379h5.037v2.728h-7.858v-10.787z"></path>
<path fill="#fff" style="fill: var(--color1, #fff)" d="M11.809 0h10.167l-5.084 11.019-5.084-11.019zM16.893 9.656l4.2-9.082h-8.385l4.185 9.082z"></path>
<path fill="#fff" style="fill: var(--color1, #fff)" d="M26.037 0.013h7.858v2.728h-5.037v1.364h4.185v2.588h-4.185v1.379h5.037v2.728h-7.858v-10.787z"></path>
<path fill="#fff" style="fill: var(--color1, #fff)" d="M38.73 10.784v-10.784h0.604l7.532 7.331v-7.331h0.573v10.787l-8.71-0.003z"></path>
<path fill="#fff" style="fill: var(--color1, #fff)" d="M55.671 10.8v-8.059h-4.076v-2.728h8.71v2.728h-4.076v8.059h-0.558z"></path>
<path fill="#fff" style="fill: var(--color1, #fff)" d="M4.634 18.611c0.682 0 1.224 0.103 1.627 0.31 0.463 0.226 0.852 0.579 1.121 1.018s0.407 0.946 0.398 1.461c0.003 0.496-0.137 0.983-0.403 1.403-0.27 0.43-0.65 0.78-1.1 1.015 0.559 0.197 1.049 0.553 1.41 1.023 0.375 0.465 0.577 1.046 0.573 1.643 0.004 0.522-0.138 1.035-0.411 1.48-0.266 0.442-0.643 0.808-1.093 1.062-0.239 0.128-0.494 0.222-0.759 0.279-0.279 0.062-0.651 0.093-1.116 0.093h-4.774v-10.787h4.526z"></path>
<path fill="#fff" style="fill: var(--color1, #fff)" d="M22.806 28.616c-0.811-0.708-1.211-1.769-1.201-3.185h2.526c-0.010 0.589 0.165 1.038 0.527 1.348s0.868 0.465 1.519 0.465c0.537 0 0.961-0.088 1.271-0.263s0.465-0.444 0.465-0.806c0-0.3-0.158-0.517-0.473-0.651-0.301-0.13-0.615-0.226-0.938-0.287-0.31-0.057-0.501-0.091-0.573-0.103-0.702-0.13-1.392-0.32-2.061-0.568-0.562-0.209-1.063-0.555-1.457-1.007-0.393-0.455-0.589-1.054-0.589-1.798s0.196-1.377 0.589-1.899c0.393-0.522 0.917-0.912 1.573-1.17 0.685-0.264 1.413-0.395 2.147-0.387 0.94 0 1.754 0.176 2.441 0.527s1.227 0.883 1.62 1.596c0.182 0.302 0.303 0.636 0.356 0.984 0.041 0.306 0.061 0.614 0.062 0.922h-2.526c0-0.558-0.15-0.969-0.449-1.232s-0.765-0.395-1.395-0.395c-0.506 0-0.899 0.088-1.178 0.263s-0.419 0.413-0.419 0.713c0 0.331 0.186 0.573 0.558 0.728 0.457 0.181 0.929 0.321 1.41 0.418 0.93 0.186 1.656 0.364 2.178 0.535 0.526 0.173 0.995 0.487 1.356 0.907 0.382 0.434 0.573 1.044 0.573 1.829 0 0.744-0.207 1.385-0.62 1.922s-0.958 0.948-1.635 1.232c-0.695 0.288-1.441 0.433-2.193 0.426-1.498-0.002-2.653-0.356-3.464-1.064z"></path>
<path fill="#fff" style="fill: var(--color1, #fff)" d="M37.072 29.398v-8.059h-4.076v-2.728h8.71v2.728h-4.076v8.059h-0.558z"></path>
<path fill="#fff" style="fill: var(--color1, #fff)" d="M44.635 18.611h7.858v2.728h-5.037v1.364h4.185v2.588h-4.185v1.379h5.037v2.728h-7.858v-10.787z"></path>
<path fill="#fff" style="fill: var(--color1, #fff)" d="M64.132 29.398h-8.292v-10.787h4.2c0.899 0 1.632 0.16 2.201 0.48 0.543 0.295 0.993 0.735 1.302 1.271 0.312 0.542 0.472 1.157 0.465 1.782 0.008 0.785-0.255 1.548-0.744 2.162-0.468 0.617-1.128 1.061-1.875 1.263l2.744 3.828zM56.414 19.557v5.564h3.983l-3.983-5.564zM56.414 28.825h6.633l-2.263-3.146-0.48 0.015h-3.89v3.131zM56.817 19.185l4.216 5.889c0.677-0.135 1.285-0.503 1.72-1.038 0.447-0.528 0.689-1.199 0.682-1.891 0.006-0.545-0.139-1.082-0.419-1.55-0.279-0.465-0.688-0.837-1.178-1.069-0.455-0.227-1.048-0.341-1.782-0.341h-3.239z"></path>
</symbol>
<!-- Search icon -->
    <symbol id="search-icon" viewBox="0 0 32 32">
<path d="M4.024 4.024c2.595-2.595 6.045-4.024 9.715-4.024s7.12 1.429 9.715 4.024c2.595 2.595 4.024 6.045 4.024 9.715 0 3.355-1.195 6.526-3.383 9.029l7.63 7.63c0.367 0.366 0.367 0.961 0 1.327-0.183 0.183-0.423 0.275-0.663 0.275s-0.481-0.092-0.664-0.275l-7.63-7.63c-2.502 2.188-5.673 3.383-9.029 3.383-3.67 0-7.12-1.429-9.715-4.024s-4.024-6.045-4.024-9.715 1.429-7.12 4.024-9.715zM5.351 22.127c4.625 4.625 12.15 4.625 16.775 0s4.625-12.15 0-16.775c-2.313-2.313-5.35-3.469-8.388-3.469s-6.075 1.157-8.388 3.469c-4.625 4.625-4.625 12.15 0 16.775z"></path>
</symbol>
<!-- Icon-close -->
<symbol id="icon-close" viewBox="0 0 32 32">
<path d="M1.646 32c-0.422 0-0.843-0.16-1.163-0.483-0.643-0.643-0.643-1.685 0-2.328l28.707-28.707c0.643-0.643 1.685-0.643 2.328 0s0.643 1.685 0 2.329l-28.707 28.706c-0.323 0.321-0.744 0.483-1.165 0.483z"></path>
<path d="M30.355 32c-0.421 0-0.843-0.16-1.163-0.483l-28.709-28.706c-0.643-0.643-0.643-1.686 0-2.329s1.685-0.643 2.329 0l28.707 28.707c0.643 0.643 0.643 1.685 0 2.328-0.323 0.321-0.744 0.483-1.163 0.483z"></path>
</symbol>
    <symbol id="icon-polygon" viewBox="0 0 52 32">
<path d="M26 32l-25.981-30h51.962l-25.981 30z"></path>
<symbol id="icon-to-top" viewBox="0 0 32 32">
<path d="M14 24.238v7.762l-12-12 12-12v7.932c13.961 0.327 13.362-9.493 9.808-15.932 8.772 9.482 6.909 24.674-9.808 24.238z"></path>
</symbol>
</symbol>
</defs>
</svg>
